HIERARCHY
ROOT hips
{
	OFFSET 0.000000 104.274902 0.000000
	CHANNELS 6 Xposition Yposition Zposition Xrotation Yrotation Zrotation
	JOINT spine
	{
		OFFSET 0.000000 10.181549 0.131524
		CHANNELS 6 Xposition Yposition Zposition Xrotation Yrotation Zrotation
		JOINT chest
		{
			OFFSET 0.000000 9.893990 -1.470706
			CHANNELS 3 Xrotation Yrotation Zrotation
			JOINT upperChest
			{
				OFFSET 0.000000 9.220787 -1.370637
				CHANNELS 3 Xrotation Yrotation Zrotation
				JOINT neck
				{
					OFFSET 0.000000 16.740372 -2.049022
					CHANNELS 6 Xposition Yposition Zposition Xrotation Yrotation Zrotation
					JOINT head
					{
						OFFSET 0.000000 9.617859 1.684976
						CHANNELS 6 Xposition Yposition Zposition Xrotation Yrotation Zrotation
						JOINT headEnd
						{
							OFFSET 0.000000 22.037384 7.501072
							CHANNELS 6 Xposition Yposition Zposition Xrotation Yrotation Zrotation
							End Site
							{
								OFFSET 0.000000 23.106567 -2.828246
							}
						}
					}
				}
				JOINT rightShoulder
				{
					OFFSET -4.570000 11.014877 -2.160840
					CHANNELS 6 Xposition Yposition Zposition Xrotation Yrotation Zrotation
					JOINT rightUpperArm
					{
						OFFSET -10.592867 -0.524796 -2.232105
						CHANNELS 3 Xrotation Yrotation Zrotation
						JOINT rightLowerArm
						{
							OFFSET -27.841497 0.000000 -0.000002
							CHANNELS 3 Xrotation Yrotation Zrotation
							JOINT rightHand
							{
								OFFSET -28.328812 0.000000 -0.000001
								CHANNELS 3 Xrotation Yrotation Zrotation
								JOINT rightThumbProximal
								{
									OFFSET -2.464798 -1.573990 2.681911
									CHANNELS 6 Xposition Yposition Zposition Xrotation Yrotation Zrotation
									JOINT rightThumbIntermediate
									{
										OFFSET -3.244781 -1.873383 1.873376
										CHANNELS 3 Xrotation Yrotation Zrotation
										JOINT rightThumbDistal
										{
											OFFSET -2.646263 -1.527817 1.527818
											CHANNELS 6 Xposition Yposition Zposition Xrotation Yrotation Zrotation
											JOINT rightHandThumb4
											{
												OFFSET -1.994591 -1.151581 1.151575
												CHANNELS 6 Xposition Yposition Zposition Xrotation Yrotation Zrotation
												End Site
												{
													OFFSET -1.860176 -1.142715 1.365483
												}
											}
										}
									}
								}
								JOINT rightIndexProximal
								{
									OFFSET -9.108299 -0.517883 2.259803
									CHANNELS 6 Xposition Yposition Zposition Xrotation Yrotation Zrotation
									JOINT rightIndexIntermediate
									{
										OFFSET -3.699997 0.000000 0.000000
										CHANNELS 3 Xrotation Yrotation Zrotation
										JOINT rightIndexDistal
										{
											OFFSET -2.850006 0.000000 0.000000
											CHANNELS 3 Xrotation Yrotation Zrotation
											JOINT rightHandIndex4
											{
												OFFSET -2.772194 0.000000 0.000000
												CHANNELS 3 Xrotation Yrotation Zrotation
												End Site
												{
													OFFSET -2.772202 0.000000 -0.000484
												}
											}
										}
									}
								}
								JOINT rightMiddleProximal
								{
									OFFSET -9.532501 0.000000 -0.000000
									CHANNELS 6 Xposition Yposition Zposition Xrotation Yrotation Zrotation
									JOINT rightMiddleIntermediate
									{
										OFFSET -3.699997 0.000000 0.000000
										CHANNELS 3 Xrotation Yrotation Zrotation
										JOINT rightMiddleDistal
										{
											OFFSET -2.949997 0.000000 0.000000
											CHANNELS 3 Xrotation Yrotation Zrotation
											JOINT rightHandMiddle4
											{
												OFFSET -2.946594 0.000000 0.000000
												CHANNELS 3 Xrotation Yrotation Zrotation
												End Site
												{
													OFFSET -2.946602 0.000000 -0.000982
												}
											}
										}
									}
								}
								JOINT rightRingProximal
								{
									OFFSET -9.103600 -0.043106 -1.865100
									CHANNELS 6 Xposition Yposition Zposition Xrotation Yrotation Zrotation
									JOINT rightRingIntermediate
									{
										OFFSET -3.379303 0.000000 0.000000
										CHANNELS 3 Xrotation Yrotation Zrotation
										JOINT rightRingDistal
										{
											OFFSET -2.889694 0.000000 0.000000
											CHANNELS 3 Xrotation Yrotation Zrotation
											JOINT rightHandRing4
											{
												OFFSET -2.638802 0.000000 0.000000
												CHANNELS 3 Xrotation Yrotation Zrotation
												End Site
												{
													OFFSET -2.638802 0.000000 0.004218
												}
											}
										}
									}
								}
								JOINT rightLittleProximal
								{
									OFFSET -8.076698 -0.486725 -3.806299
									CHANNELS 6 Xposition Yposition Zposition Xrotation Yrotation Zrotation
									JOINT rightLittleIntermediate
									{
										OFFSET -3.600006 0.000000 0.000000
										CHANNELS 3 Xrotation Yrotation Zrotation
										JOINT rightLittleDistal
										{
											OFFSET -2.099998 0.000000 0.000000
											CHANNELS 3 Xrotation Yrotation Zrotation
											JOINT rightHandPinky4
											{
												OFFSET -2.115791 0.000000 0.000000
												CHANNELS 3 Xrotation Yrotation Zrotation
												End Site
												{
													OFFSET -2.115799 0.000000 0.000174
												}
											}
										}
									}
								}
							}
						}
					}
				}
				JOINT leftShoulder
				{
					OFFSET 4.570400 11.014679 -2.160816
					CHANNELS 6 Xposition Yposition Zposition Xrotation Yrotation Zrotation
					JOINT leftUpperArm
					{
						OFFSET 10.592373 -0.524597 -2.232116
						CHANNELS 3 Xrotation Yrotation Zrotation
						JOINT leftLowerArm
						{
							OFFSET 27.841488 0.000000 0.000001
							CHANNELS 3 Xrotation Yrotation Zrotation
							JOINT leftHand
							{
								OFFSET 28.328808 0.000000 -0.000000
								CHANNELS 3 Xrotation Yrotation Zrotation
								JOINT leftThumbProximal
								{
									OFFSET 2.466103 -1.576202 2.681698
									CHANNELS 6 Xposition Yposition Zposition Xrotation Yrotation Zrotation
									JOINT leftThumbIntermediate
									{
										OFFSET 3.243317 -1.872528 1.872530
										CHANNELS 3 Xrotation Yrotation Zrotation
										JOINT leftThumbDistal
										{
											OFFSET 2.647881 -1.528763 1.528754
											CHANNELS 6 Xposition Yposition Zposition Xrotation Yrotation Zrotation
											JOINT leftHandThumb4
											{
												OFFSET 1.998924 -1.154083 1.154080
												CHANNELS 6 Xposition Yposition Zposition Xrotation Yrotation Zrotation
												End Site
												{
													OFFSET 1.884041 -1.149155 1.337651
												}
											}
										}
									}
								}
								JOINT leftIndexProximal
								{
									OFFSET 9.109299 -0.518005 2.259900
									CHANNELS 6 Xposition Yposition Zposition Xrotation Yrotation Zrotation
									JOINT leftIndexIntermediate
									{
										OFFSET 3.699997 0.000000 0.000000
										CHANNELS 3 Xrotation Yrotation Zrotation
										JOINT leftIndexDistal
										{
											OFFSET 2.850006 0.000000 0.000000
											CHANNELS 3 Xrotation Yrotation Zrotation
											JOINT leftHandIndex4
											{
												OFFSET 2.774895 0.000000 0.000000
												CHANNELS 3 Xrotation Yrotation Zrotation
												End Site
												{
													OFFSET 2.774902 0.000000 -0.000072
												}
											}
										}
									}
								}
								JOINT leftMiddleProximal
								{
									OFFSET 9.533401 0.000000 0.000000
									CHANNELS 6 Xposition Yposition Zposition Xrotation Yrotation Zrotation
									JOINT leftMiddleIntermediate
									{
										OFFSET 3.699997 0.000000 0.000000
										CHANNELS 3 Xrotation Yrotation Zrotation
										JOINT leftMiddleDistal
										{
											OFFSET 2.949997 0.000000 0.000000
											CHANNELS 3 Xrotation Yrotation Zrotation
											JOINT leftHandMiddle4
											{
												OFFSET 2.952896 0.000000 0.000000
												CHANNELS 3 Xrotation Yrotation Zrotation
												End Site
												{
													OFFSET 2.952904 0.000000 0.000165
												}
											}
										}
									}
								}
								JOINT leftRingProximal
								{
									OFFSET 9.104500 -0.042999 -1.865101
									CHANNELS 6 Xposition Yposition Zposition Xrotation Yrotation Zrotation
									JOINT leftRingIntermediate
									{
										OFFSET 3.149994 0.000000 0.000000
										CHANNELS 3 Xrotation Yrotation Zrotation
										JOINT leftRingDistal
										{
											OFFSET 2.950005 0.000000 0.000000
											CHANNELS 3 Xrotation Yrotation Zrotation
											JOINT leftHandRing4
											{
												OFFSET 2.644302 0.000000 0.000000
												CHANNELS 3 Xrotation Yrotation Zrotation
												End Site
												{
													OFFSET 2.644302 0.000000 0.000083
												}
											}
										}
									}
								}
								JOINT leftLittleProximal
								{
									OFFSET 8.077805 -0.486893 -3.806302
									CHANNELS 6 Xposition Yposition Zposition Xrotation Yrotation Zrotation
									JOINT leftLittleIntermediate
									{
										OFFSET 3.600006 0.000000 0.000000
										CHANNELS 3 Xrotation Yrotation Zrotation
										JOINT leftLittleDistal
										{
											OFFSET 2.099998 0.000000 0.000000
											CHANNELS 3 Xrotation Yrotation Zrotation
											JOINT leftHandPinky4
											{
												OFFSET 2.125496 0.000000 0.000000
												CHANNELS 3 Xrotation Yrotation Zrotation
												End Site
												{
													OFFSET 2.125504 0.000000 -0.001254
												}
											}
										}
									}
								}
							}
						}
					}
				}
			}
		}
	}
	JOINT rightUpperLeg
	{
		OFFSET -8.207800 -6.751701 -1.599544
		CHANNELS 6 Xposition Yposition Zposition Xrotation Yrotation Zrotation
		JOINT rightLowerLeg
		{
			OFFSET 0.000004 -44.370152 0.345934
			CHANNELS 3 Xrotation Yrotation Zrotation
			JOINT rightFoot
			{
				OFFSET 0.000004 -44.423664 -3.043535
				CHANNELS 3 Xrotation Yrotation Zrotation
				JOINT rightToes
				{
					OFFSET 0.000001 -8.728691 10.710592
					CHANNELS 3 Xrotation Yrotation Zrotation
					JOINT rightToesEnd
					{
						OFFSET 0.000000 -0.000665 9.278101
						CHANNELS 3 Xrotation Yrotation Zrotation
						End Site
						{
							OFFSET 0.000000 -0.000665 9.278103
						}
					}
				}
			}
		}
	}
	JOINT leftUpperLeg
	{
		OFFSET 8.207800 -6.751701 -1.599544
		CHANNELS 6 Xposition Yposition Zposition Xrotation Yrotation Zrotation
		JOINT leftLowerLeg
		{
			OFFSET 0.000004 -44.370037 0.346940
			CHANNELS 3 Xrotation Yrotation Zrotation
			JOINT leftFoot
			{
				OFFSET 0.000004 -44.423611 -3.044388
				CHANNELS 3 Xrotation Yrotation Zrotation
				JOINT leftToes
				{
					OFFSET 0.000001 -8.728690 10.710592
					CHANNELS 3 Xrotation Yrotation Zrotation
					JOINT leftToesEnd
					{
						OFFSET 0.000000 -0.000680 9.278101
						CHANNELS 3 Xrotation Yrotation Zrotation
						End Site
						{
							OFFSET 0.000000 -0.000680 9.278101
						}
					}
				}
			}
		}
	}
}
MOTION
Frames: 4
Frame Time: 0.033333
56.986443 93.380890 56.615120 -7.923083 45.975263 -352.315637 -0.000004 10.181563 0.131526 10.201705 -10.186284 -13.304718 -4.205499 -0.902750 -1.532283 -4.198401 -1.051064 -1.458988 -0.000003 16.740343 -2.049021 -10.428842 10.988352 -0.674122 0.000000 9.617872 1.684967 -17.012936 52.332158 4.673510 0.000016 22.037354 7.501085 -0.000001 -0.000000 -0.000001 -4.570001 11.014864 -2.160840 -0.451378 -2.036902 -11.779231 22.161672 -18.406363 46.761978 -0.000012 22.777071 0.000038 -4.869988 3.106082 -17.440045 -2.464797 -1.573995 2.681918 -11.064441 -1.488273 -12.351056 4.662201 -5.217360 1.084960 -2.646282 -1.527796 1.527811 -2.720935 -0.383644 -2.655511 -1.994598 -1.151599 1.151595 0.000003 -0.000006 -0.000000 -9.108313 -0.517880 2.259811 2.575367 16.262901 -8.493197 -0.000001 -0.000001 0.000000 0.051478 -0.846333 6.962397 -0.000000 -0.000001 -0.000000 -9.532504 -0.000012 0.000009 0.284670 4.483533 -3.590560 0.068956 -0.978869 8.059472 0.014883 -0.455536 3.740757 -0.000000 -0.000002 -0.000000 -9.103593 -0.043116 -1.865096 -0.042565 -0.707618 -2.841857 0.056403 -0.885678 7.287791 0.014877 -0.455543 3.740753 0.000000 0.000001 0.000000 -8.076701 -0.486724 -3.806284 -0.140910 -1.133631 -5.592952 0.001504 -0.144863 1.188732 0.011575 -0.401899 3.299790 -0.000000 -0.000002 -0.000000 4.570398 11.014682 -2.160810 0.515463 0.864199 -7.737984 -10.828414 -8.312638 -21.620356 0.000031 -54.020133 0.000030 -41.301932 -22.782926 4.746090 2.466107 -1.576184 2.681691 -9.504299 -0.293914 3.044573 8.783875 9.203560 -6.813083 2.647875 -1.528770 1.528726 5.592399 3.228323 1.153552 1.998913 -1.154093 1.154084 0.000001 -0.000001 0.000001 9.109290 -0.518010 2.259898 -2.535078 -4.628679 -23.345472 0.070527 0.985256 -8.192718 0.009278 -0.357594 2.964401 0.000000 0.000000 -0.000002 9.533400 0.000004 -0.000007 -0.287414 -0.787714 -11.240839 0.139754 1.383049 -11.540319 0.139359 1.381149 -11.524319 -0.000001 -0.000000 0.000002 9.104502 -0.043005 -1.865107 1.051011 3.732592 -26.488906 0.139381 1.381161 -11.524327 0.105177 1.201456 -10.007755 0.000001 0.000000 0.000003 8.077806 -0.486879 -3.806308 4.102617 8.991340 -29.484888 0.097614 -2.855446 -10.496743 0.114566 1.253357 -10.444930 0.000000 -0.000000 -0.000001 -8.207801 -6.751714 -1.599539 -10.135529 -2.756852 6.665050 54.058867 -0.133238 3.683019 -23.996297 4.702954 3.704725 -13.294367 0.016107 -1.238583 0.000001 0.000001 0.000001 8.207800 -6.751698 -1.599534 -30.732972 3.868319 0.447059 54.106197 1.845892 -9.990074 -8.210508 0.705951 8.910980 -9.818396 -0.000218 0.008636 0.000000 0.000000 0.000000 
57.174644 92.405289 56.428055 -11.510261 49.581241 -349.474661 0.000001 10.181553 0.131531 12.039915 -9.604637 -13.221625 -4.067996 -0.823494 -1.161352 -4.056822 -0.963299 -1.093854 -0.000004 16.740389 -2.049024 -8.897731 10.880911 -0.660598 -0.000000 9.617874 1.684970 -14.152649 52.091049 2.760143 -0.000017 22.037384 7.501079 -0.000000 0.000000 -0.000002 -4.570002 11.014877 -2.160846 -0.552318 -3.097923 -10.090338 19.094963 -22.305702 46.944788 -0.000004 24.552983 0.000022 -4.707493 3.096514 -20.452030 -2.464799 -1.574017 2.681916 -11.088527 -1.618390 -12.736938 4.662190 -5.217334 1.084961 -2.646273 -1.527805 1.527819 -2.744186 -0.302342 -2.657489 -1.994595 -1.151568 1.151581 -0.000000 -0.000007 0.000002 -9.108301 -0.517876 2.259806 2.574791 16.180841 -8.545634 -0.000000 -0.000004 -0.000000 0.055396 -0.877789 7.222449 -0.000000 0.000003 0.000000 -9.532500 0.000001 0.000003 0.284003 4.448369 -3.617037 0.068958 -0.978851 8.059478 0.018134 -0.502909 4.130257 0.000000 0.000002 0.000001 -9.103598 -0.043097 -1.865097 -0.034480 -0.548592 -2.808279 0.056744 -0.888280 7.309352 0.018127 -0.502904 4.130259 0.000000 -0.000000 0.000001 -8.076699 -0.486720 -3.806291 -0.115268 -0.882498 -5.520594 0.003899 -0.233444 1.916019 0.011571 -0.401798 3.298871 -0.000001 0.000006 0.000001 4.570401 11.014709 -2.160823 0.543004 0.872648 -8.470957 -18.648643 -7.535253 -24.610597 -0.000011 -51.588470 -0.000002 -41.508248 -22.877319 3.733091 2.466106 -1.576196 2.681697 -9.483872 -0.298669 2.836134 8.876060 9.263472 -7.056256 2.647909 -1.528747 1.528762 5.692278 3.562985 0.984046 1.998909 -1.154074 1.154062 0.000002 0.000002 -0.000000 9.109296 -0.518022 2.259896 -2.724064 -4.967471 -23.671327 0.070575 0.985385 -8.193752 0.010357 -0.378050 3.134164 -0.000000 -0.000002 0.000002 9.533413 0.000005 -0.000001 -0.310107 -0.886451 -11.329143 0.140790 1.388120 -11.583280 0.140382 1.386219 -11.567287 0.000001 -0.000000 -0.000001 9.104508 -0.042992 -1.865099 1.087781 3.809952 -26.363574 0.140408 1.386226 -11.567295 0.105870 1.205421 -10.041206 0.000001 -0.000000 0.000002 8.077808 -0.486887 -3.806305 4.201780 9.206859 -29.292356 0.097618 -2.855438 -10.496763 0.114399 1.252591 -10.438616 0.000000 -0.000001 -0.000001 -8.207799 -6.751716 -1.599542 -10.834144 -3.780049 7.574636 56.827638 -0.730250 2.016597 -24.477837 5.808776 -0.484227 -12.737404 0.003441 -0.575686 -0.000000 -0.000001 0.000000 8.207803 -6.751701 -1.599544 -30.597489 2.399677 -0.947850 56.771863 0.976658 -9.985999 -7.979410 0.363088 9.768292 -10.909930 -0.000302 0.007403 -0.000000 0.000002 0.000000 
57.217861 91.264984 56.097580 -16.008884 52.910784 -346.010908 -0.000000 10.181556 0.131521 14.092622 -8.893183 -12.967584 -3.648716 -0.770705 -0.512250 -3.631076 -0.883518 -0.452146 -0.000002 16.740372 -2.049027 -7.512382 10.833185 -0.690502 -0.000003 9.617862 1.684978 -11.763159 52.146087 0.868638 0.000008 22.037354 7.501081 -0.000001 0.000000 -0.000000 -4.570002 11.014884 -2.160845 -0.521639 -3.380328 -8.788400 16.530292 -25.047588 47.696526 -0.000008 25.553131 0.000029 -6.266595 3.439900 -24.108430 -2.464796 -1.573992 2.681908 -11.094226 -1.796172 -12.832220 4.662194 -5.217343 1.084959 -2.646276 -1.527802 1.527810 -2.760537 -0.239131 -2.650984 -1.994590 -1.151581 1.151562 0.000002 -0.000002 0.000003 -9.108290 -0.517869 2.259803 2.554271 15.914882 -8.647861 0.020760 -0.537997 4.419075 0.065133 -0.951434 7.832203 -0.000002 -0.000001 0.000000 -9.532495 0.000009 -0.000003 0.279306 4.332802 -3.670061 0.097506 -1.162664 9.586497 0.027030 -0.613821 5.043545 0.000001 -0.000002 0.000001 -9.103594 -0.043114 -1.865098 -0.033868 -0.547037 -2.773413 0.057566 -0.894716 7.362470 0.027037 -0.613830 5.043543 0.000001 0.000003 -0.000000 -8.076684 -0.486720 -3.806299 -0.112840 -0.885727 -5.419604 0.007007 -0.312929 2.568661 0.011611 -0.402457 3.304342 0.000001 0.000001 -0.000000 4.570398 11.014673 -2.160820 0.581141 0.349536 -9.454362 -27.633540 -4.949159 -28.250149 0.000004 -50.126301 -0.000001 -41.064163 -23.443863 5.885096 2.466115 -1.576195 2.681700 -9.435056 -0.135522 2.507643 8.959801 9.317122 -7.272756 2.647882 -1.528750 1.528739 5.783731 3.868975 0.834571 1.998913 -1.154094 1.154066 -0.000001 -0.000000 0.000005 9.109303 -0.518018 2.259896 -2.711138 -4.509350 -24.853252 0.070568 0.985423 -8.194170 0.012223 -0.410932 3.407151 0.000001 0.000004 -0.000002 9.533411 0.000001 0.000008 -0.300572 -0.770817 -11.669917 0.145704 1.411885 -11.784520 0.145314 1.409994 -11.768519 0.000001 -0.000001 0.000003 9.104486 -0.043016 -1.865103 1.253891 4.136223 -26.508161 0.145292 1.409995 -11.768517 0.109214 1.224044 -10.197917 -0.000000 -0.000001 0.000000 8.077810 -0.486911 -3.806301 4.691692 9.994127 -29.533670 0.097613 -2.855448 -10.496744 0.114790 1.254651 -10.455928 -0.000001 0.000001 -0.000001 -8.207796 -6.751692 -1.599545 -9.890001 -4.708300 8.516802 59.252424 0.294217 0.756967 -25.333126 6.244280 -3.628824 -12.724163 0.000466 -0.211925 -0.000000 -0.000000 -0.000001 8.207801 -6.751701 -1.599550 -30.872899 2.159737 -1.297470 60.248545 -0.914604 -9.985030 -5.940668 -0.078701 11.533860 -13.813948 0.010411 -0.167841 0.000000 0.000002 0.000000 
57.173965 90.403870 55.776901 -21.790518 56.631585 -341.974403 -0.000003 10.181549 0.131527 16.070327 -8.469104 -11.771773 -2.767073 -0.808175 0.128077 -2.743417 -0.873974 0.182793 -0.000005 16.740391 -2.049019 -6.670679 10.730771 -0.547935 0.000005 9.617840 1.684980 -9.865210 52.128321 -1.005902 -0.000015 22.037399 7.501077 0.000001 -0.000002 -0.000001 -4.570003 11.014883 -2.160841 -0.403266 -3.460586 -6.659229 13.484812 -26.916703 47.874964 -0.000015 25.998026 0.000042 -7.435212 4.331498 -28.143270 -2.464809 -1.573988 2.681921 -11.078920 -2.010213 -12.603615 4.662198 -5.217336 1.084955 -2.646276 -1.527812 1.527828 -2.763466 -0.217110 -2.635747 -1.994594 -1.151570 1.151571 -0.000002 -0.000003 0.000001 -9.108301 -0.517864 2.259814 2.521951 15.543907 -8.781372 0.183466 -1.589881 13.164835 0.080750 -1.058788 8.722723 -0.000000 -0.000003 -0.000001 -9.532509 0.000023 0.000009 0.272153 4.171343 -3.739635 0.168348 -1.523784 12.608183 0.043216 -0.775546 6.377364 -0.000001 -0.000002 -0.000000 -9.103609 -0.043106 -1.865086 -0.040061 -0.695243 -2.735223 0.058923 -0.905121 7.448736 0.043205 -0.775541 6.377360 -0.000001 0.000003 0.000001 -8.076704 -0.486737 -3.806291 -0.131098 -1.131275 -5.285381 0.009537 -0.364948 2.996021 0.011673 -0.403538 3.313158 -0.000001 -0.000000 -0.000000 4.570397 11.014698 -2.160815 0.580622 -0.765899 -9.340529 -36.076431 0.328693 -32.928625 0.000004 -50.666398 -0.000006 -41.670250 -24.254955 10.450387 2.466100 -1.576220 2.681701 -9.357854 0.295029 2.013359 8.972284 9.325116 -7.301649 2.647892 -1.528739 1.528753 5.798137 3.924101 0.814551 1.998910 -1.154074 1.154085 -0.000001 -0.000007 -0.000003 9.109300 -0.518022 2.259899 -2.601519 -3.723652 -26.536231 0.070568 0.985366 -8.193679 0.014347 -0.445272 3.692190 -0.000001 -0.000003 -0.000001 9.533390 0.000004 0.000002 -0.276745 -0.566757 -12.156844 0.152918 1.446144 -12.074810 0.152530 1.444259 -12.058815 0.000002 0.000000 0.000003 9.104502 -0.043002 -1.865095 1.490412 4.589938 -26.765966 0.152539 1.444261 -12.058819 0.114085 1.250849 -10.424003 0.000001 0.000001 -0.000005 8.077793 -0.486898 -3.806298 5.397745 11.074926 -29.967896 0.097599 -2.855456 -10.496748 0.115605 1.259071 -10.493118 -0.000002 -0.000001 -0.000000 -8.207802 -6.751716 -1.599542 -6.466065 -6.306755 9.983113 57.886441 -1.217924 0.966543 -29.232096 6.626064 -7.695354 -9.751616 0.000023 0.000001 0.000000 -0.000001 -0.000000 8.207800 -6.751697 -1.599549 -31.119780 2.356493 -0.235643 63.747665 -3.451551 -9.973676 -2.545481 -1.814122 13.973427 -16.222319 -0.001964 0.027919 0.000000 0.000000 0.000000 
